<?xml version="1.0" encoding="UTF-8"?>
<svg id="Capa_2" data-name="Capa 2" xmlns="http://www.w3.org/2000/svg" viewBox="0 0 827.41 827.41">
  <defs>
    <style>
      .cls-1 {
        fill: #ffe817;
      }
    </style>
  </defs>
  <g id="Capa_1-2" data-name="Capa 1">
    <path class="cls-1" d="m27.48,165.86l258.97,250.07L36.37,674.9c-34.53,35.76-33.53,92.73,2.22,127.26h0c35.76,34.53,92.73,33.53,127.26-2.22l250.07-258.97,258.97,250.07c35.76,34.53,92.73,33.53,127.26-2.22h0c34.53-35.76,33.53-92.73-2.22-127.26l-258.97-250.07,250.07-258.97c34.53-35.76,33.53-92.73-2.22-127.26h0c-35.76-34.53-92.73-33.53-127.26,2.22l-250.07,258.97L152.52,36.37C116.76,1.85,59.79,2.84,25.26,38.6h0c-34.53,35.76-33.53,92.73,2.22,127.26Z"/>
  </g>
</svg>