<?xml version="1.0" encoding="UTF-8"?>
<svg id="Capa_2" data-name="Capa 2" xmlns="http://www.w3.org/2000/svg" viewBox="0 0 1079.44 1078.79">
  <defs>
    <style>
      .cls-1 {
        fill: #fff;
      }
    </style>
  </defs>
  <g id="Capa_1-2" data-name="Capa 1">
    <path class="cls-1" d="m1039.91,406.93L698.76,65.74c-87.91-87.65-230.17-87.65-318.08,0L39.54,406.93C14.14,432.17-.1,466.52,0,502.33v441.54C0,1018.38,60.41,1078.79,134.93,1078.79h809.58c74.52,0,134.93-60.41,134.93-134.93v-441.54c.1-35.8-14.14-70.16-39.53-95.4Zm-365.26,581.91h-269.86v-176.94c0-74.52,60.41-134.93,134.93-134.93s134.93,60.41,134.93,134.93v176.94Zm314.84-44.98c0,24.84-20.14,44.98-44.98,44.98h-179.91v-176.94c0-124.2-100.68-224.88-224.88-224.88s-224.88,100.68-224.88,224.88v176.94h-179.91c-24.84,0-44.98-20.14-44.98-44.98v-441.54c.04-11.92,4.78-23.34,13.18-31.8L444.28,129.47c52.78-52.54,138.1-52.54,190.88,0l341.15,341.19c8.37,8.42,13.1,19.79,13.18,31.66v441.54Z"/>
  </g>
</svg>