<?xml version="1.0" encoding="UTF-8"?>
<svg id="Capa_2" data-name="Capa 2" xmlns="http://www.w3.org/2000/svg" viewBox="0 0 1028.87 1080">
  <defs>
    <style>
      .cls-1 {
        fill: #fff;
      }
    </style>
  </defs>
  <g id="Capa_1-2" data-name="Capa 1">
    <g id="_01_align_center" data-name=" 01 align center">
      <path class="cls-1" d="m1023.94,728.91l-116.94-421.48C845.2,84.3,614.21-46.48,391.08,15.32,241.63,56.71,127.24,177.22,93.68,328.62L3.23,735.66c-16.15,72.75,29.74,144.81,102.49,160.96,9.59,2.13,19.38,3.2,29.2,3.21h162.23c24.72,121.72,143.42,200.35,265.14,175.63,88.5-17.97,157.66-87.14,175.63-175.63h156.07c74.52-.03,134.9-60.47,134.87-134.99,0-12.14-1.65-24.22-4.89-35.92h-.04Zm-506.39,260.86c-56.98-.24-107.66-36.24-126.65-89.95h253.31c-18.99,53.72-69.68,89.72-126.65,89.95Zm412.21-197.67c-8.51,11.28-21.85,17.87-35.98,17.77H134.93c-24.84,0-44.97-20.14-44.97-44.98,0-3.28.36-6.55,1.07-9.75l90.45-407.04c39.47-177.52,215.37-289.43,392.89-249.96,118.71,26.39,213.21,116.07,245.78,233.23l116.94,421.48c3.87,13.51,1.16,28.06-7.33,39.26Z"/>
    </g>
  </g>
</svg>