<?xml version="1.0" encoding="UTF-8"?>
<svg id="Capa_2" data-name="Capa 2" xmlns="http://www.w3.org/2000/svg" viewBox="0 0 883.81 1080">
  <defs>
    <style>
      .cls-1 {
        fill: gray;
      }
    </style>
  </defs>
  <g id="Capa_1-2" data-name="Capa 1">
    <path class="cls-1" d="m408.36,0h65.39c3.83,2.93,8.21,3.82,12.97,4.31,21.06,2.15,41.98,6,61.93,12.71,49.3,16.59,93.06,43.01,130.11,79.64,32.42,32.05,59.15,68.12,78.02,110.2,14.48,32.29,23.2,66.28,27.28,100.54,2.3,19.29,2.68,39.94,2.09,60.09-1.11,37.93-.07,75.92-.52,113.89-.1,8.13,1.8,10.8,10.21,10.28,18.34-1.14,36.48.37,52.51,10.69,25.06,16.12,35.39,40.1,35.4,69.05.07,142.37.02,284.74.06,427.11,0,10.05-1.88,19.72-4.51,29.36-8.7,31.94-38.68,52.14-71.51,52.13-246.78-.05-493.55.07-740.33-.21-21.06-.02-37.94-10.92-51.21-26.73C3.74,1038.17.19,1020.53.22,1001.13c.2-147.51-.63-295.02.05-442.52.13-28.98,21.66-54.94,49.68-63.59,12.47-3.85,24.63-3.71,36.94-3.29,9.6.32,11.83-3.12,11.69-12.13-.49-30.93-.73-61.88-.04-92.8.74-33.38-2.67-66.79,3.71-100.15,5.52-28.82,13.62-56.44,25.24-83.4,11.08-25.72,25.85-49.6,42.62-71.1,13.05-16.74,28.72-32.62,45.64-46.78,20.9-17.51,42.33-34.12,66.47-46.4,32.11-16.34,65.52-29.32,102.05-33.2,7.77-.82,17.41,1.38,24.1-5.76Zm33.15,491.06c62.56,0,125.12-.13,187.68.17,7.26.03,9.58-1.63,9.34-9.18-1.62-51.49,2.51-103.06-2.33-154.53-2.39-25.47-6.54-50.39-18.99-73.24-13.55-24.87-31.72-46.05-53.52-63.71-30.07-24.36-64.56-37.58-103.58-41.35-25.97-2.51-50.8-.55-75.51,6.29-43.36,12.02-76.72,38.52-103.16,73.97-20.78,27.86-33.93,59.63-35.06,94.29-1.72,52.31-.32,104.72-.74,157.08-.06,8.18,1.91,10.46,10.29,10.41,61.86-.38,123.72-.21,185.57-.21Z"/>
  </g>
</svg>