<?xml version="1.0" encoding="UTF-8"?>
<svg id="Capa_2" data-name="Capa 2" xmlns="http://www.w3.org/2000/svg" viewBox="0 0 1080 1080">
  <defs>
    <style>
      .cls-1 {
        fill: gray;
      }
    </style>
  </defs>
  <g id="Capa_1-2" data-name="Capa 1">
    <path class="cls-1" d="m1067.38,1003.8l-268.38-268.38c157.44-192.55,128.97-476.27-63.58-633.7C542.87-55.72,259.15-27.25,101.72,165.3-55.72,357.84-27.25,641.56,165.3,799c165.85,135.61,404.27,135.61,570.13,0l268.38,268.38c17.86,17.25,46.33,16.76,63.58-1.11,16.83-17.42,16.83-45.05,0-62.47Zm-616.3-193.02c-198.66,0-359.7-161.04-359.7-359.7S252.42,91.38,451.08,91.38s359.7,161.04,359.7,359.7c-.22,198.56-161.14,359.48-359.7,359.7Z"/>
  </g>
</svg>