<?xml version="1.0" encoding="UTF-8"?>
<svg id="Capa_2" data-name="Capa 2" xmlns="http://www.w3.org/2000/svg" viewBox="0 0 1079.44 1079.44">
  <defs>
    <style>
      .cls-1 {
        fill: #fff;
      }
    </style>
  </defs>
  <g id="Capa_1-2" data-name="Capa 1">
    <path class="cls-1" d="m539.72,719.63c-99.36,0-179.91-80.55-179.91-179.91s80.55-179.91,179.91-179.91,179.91,80.55,179.91,179.91-80.55,179.91-179.91,179.91Zm0-269.86c-49.68,0-89.95,40.27-89.95,89.95s40.27,89.95,89.95,89.95,89.95-40.27,89.95-89.95-40.27-89.95-89.95-89.95Zm269.86,584.7c0-149.04-120.82-269.86-269.86-269.86s-269.86,120.82-269.86,269.86c0,24.84,20.14,44.98,44.98,44.98s44.98-20.14,44.98-44.98c0-99.36,80.55-179.91,179.91-179.91s179.91,80.55,179.91,179.91c0,24.84,20.14,44.98,44.98,44.98s44.98-20.14,44.98-44.98Zm0-674.65c-99.36,0-179.91-80.55-179.91-179.91S710.22,0,809.58,0s179.91,80.55,179.91,179.91-80.55,179.91-179.91,179.91Zm0-269.86c-49.68,0-89.95,40.27-89.95,89.95s40.27,89.95,89.95,89.95,89.95-40.27,89.95-89.95-40.27-89.95-89.95-89.95Zm269.86,584.7c-.15-148.98-120.88-269.71-269.86-269.86-24.84,0-44.98,20.14-44.98,44.98s20.14,44.98,44.98,44.98c99.36,0,179.91,80.55,179.91,179.91,0,24.84,20.14,44.98,44.98,44.98s44.98-20.14,44.98-44.98ZM269.86,359.81c-99.36,0-179.91-80.55-179.91-179.91S170.5,0,269.86,0s179.91,80.55,179.91,179.91-80.55,179.91-179.91,179.91Zm0-269.86c-49.68,0-89.95,40.27-89.95,89.95s40.27,89.95,89.95,89.95,89.95-40.27,89.95-89.95-40.27-89.95-89.95-89.95ZM89.95,674.65c0-99.36,80.55-179.91,179.91-179.91,24.84,0,44.98-20.14,44.98-44.98s-20.14-44.98-44.98-44.98C120.88,404.94.15,525.67,0,674.65c0,24.84,20.14,44.98,44.98,44.98s44.98-20.14,44.98-44.98Z"/>
  </g>
</svg>