<?xml version="1.0" encoding="UTF-8"?>
<svg id="Capa_2" data-name="Capa 2" xmlns="http://www.w3.org/2000/svg" viewBox="0 0 948.24 1080">
  <defs>
    <style>
      .cls-1 {
        fill: gray;
      }
    </style>
  </defs>
  <g id="Capa_1-2" data-name="Capa 1">
    <g>
      <path class="cls-1" d="m540.61,561.08c-12.42,4.57-25.56,7.63-38.42,7.97-26.68.72-53.48,2.21-80.06-3.64-50.73-11.17-96.22-32.04-135.51-66.76-45.19-39.94-74.42-89.29-89.29-147.09-8.6-33.42-9.18-67.61-5.29-102.1,6.13-54.33,27.66-102.08,61.11-144.27,38.74-48.85,90.04-79.72,149.76-96.44,13.16-3.68,27.2-4.24,40.31-8.75h59.06c.39,2.66,2.61,1.81,4.19,2.18,13.57,4.05,27.8,4.33,41.52,8.15,41.64,11.6,78.74,30.88,111.7,59.15,33.06,28.37,57.65,62.51,75.83,101.69.57,1.23.84,2.6,1.25,3.91-.44,1.52.47,1.99,1.7,2.21.84,2.78,1.69,5.56,2.53,8.34-.46,1.51.48,1.97,1.67,2.25,3.56,16.2,9.9,31.72,11.75,48.36.76,6.8,2.52,13.51,2.99,20.32,3.05,43.81-.95,86.71-16.74,128.1-11.69,30.63-28.21,58.17-49.15,83.53-24.77,30-55.25,52.57-88.86,70.86-17.98,9.78-37.21,18.07-58.19,20.28-1.61-.13-3.74-1.37-3.85,1.77Z"/>
      <path class="cls-1" d="m900.87,854.35c19.22,37.76,33.93,76.91,40.46,119.14,3.28,21.24,4.99,42.41,6.59,63.77,1.06,14.2.11,25.76-11.02,35.1-5.62,4.72-11.83,7.64-19.65,7.63-295.63-.13-591.27-.12-886.9-.15-16.73,0-29.46-13.27-30.1-29.97-2.13-55.58,9.49-108.73,30.04-159.79,15.6-38.75,37.94-73.78,64.45-106.41,37.94-46.69,83.77-83.1,137.46-109.44,35.41-17.37,72.7-29.28,112.02-35.49,38.08-6.02,76.23-5.94,114.48-5.99,22.5-.03,45,.04,67.49-.02,13.23-.03,26.24,2.54,39.57,2.36,26.76-.35,52.47,6.01,78.16,13.34,20.22,5.77,40.39,11.42,59.44,20.27,31.26,14.52,60.96,31.69,87.81,53.54,15.54,12.64,30.8,25.61,44.29,40.41,24.83,27.23,47.25,56.26,63.74,89.48-.46,1.51.47,1.97,1.68,2.22Z"/>
    </g>
  </g>
</svg>