<?xml version="1.0" encoding="UTF-8"?>
<svg id="Capa_2" data-name="Capa 2" xmlns="http://www.w3.org/2000/svg" viewBox="0 0 18.02 16">
  <defs>
    <style>
      .cls-1 {
        fill: #fff;
      }

      .cls-2 {
        fill: #ffe817;
      }
    </style>
  </defs>
  <g id="Capa_1-2" data-name="Capa 1">
    <g>
      <path class="cls-2" d="m7.85,5.24c.12-.09.13-.24.2-.35.12-.2.2-.43.32-.63.11-.19.2-.39.29-.59.55-1.16,1.23-2.25,1.87-3.36.06-.1.09-.22.18-.27.09-.06.22-.02.33-.02,1.39,0,2.78,0,4.17,0,.19,0,.18-.05.18.19,0,.07-.04.13-.08.19-.7,1.11-1.39,2.22-2.09,3.33-.72,1.15-1.44,2.3-2.16,3.45-.15.25-.3.49-.47.73-.04.06-.02.09.01.14.26.39.52.78.78,1.18.42.64.84,1.29,1.26,1.93,1,1.52,2,3.03,2.99,4.55.05.07.09.14.08.23,0,.04-.02.07-.06.07-.04,0-.07,0-.11,0-1.46,0-2.93,0-4.39,0-.12,0-.19-.03-.26-.13-.39-.62-.79-1.23-1.19-1.85-.41-.65-.77-1.32-1.16-1.98-.21-.35-.41-.7-.61-1.06-.03-.05-.05-.09-.11-.12-.03.04-.05.09-.08.13-.53.92-1.06,1.85-1.6,2.77-.32.54-.67,1.05-1.01,1.57-.11.17-.23.34-.33.52-.06.11-.14.15-.26.15-1.17,0-2.33,0-3.5,0-.3,0-.6,0-.9,0-.15,0-.2-.08-.13-.22.02-.03.04-.06.06-.09,1.36-2.07,2.72-4.15,4.09-6.22.3-.46.6-.92.91-1.38.07-.1.06-.17,0-.26C3.52,5.35,1.97,2.86.41.38c-.05-.08-.08-.17-.08-.27,0-.09.03-.11.11-.11.26,0,.53,0,.79,0,1.21,0,2.42,0,3.63,0,.12,0,.18.04.23.14.43.75.88,1.48,1.3,2.23.29.52.54,1.06.81,1.59.2.39.39.78.59,1.17.02.03.04.06.05.1Z"/>
      <path class="cls-1" d="m17.71.47c-.06.07-.11.13-.17.2-.04.05-.08.05-.13,0-.06-.07-.11-.13-.17-.2-.01,0-.02,0-.03,0,0,.11,0,.22,0,.32,0,.04,0,.08,0,.13,0,.05-.03.08-.08.07-.03,0-.06,0-.09,0-.07,0-.1-.02-.1-.1,0-.26,0-.53,0-.79,0-.08.03-.1.1-.1.13,0,.24,0,.31.14.03.06.08.11.13.17.1-.05.13-.15.2-.22.06-.07.25-.12.33-.08.03.01.03.04.03.06,0,.28,0,.56,0,.84,0,.05-.02.08-.07.08-.01,0-.02,0-.03,0-.18,0-.18,0-.18-.17,0-.12,0-.24,0-.35-.01,0-.02,0-.03,0Z"/>
      <path class="cls-1" d="m16.39,0c.11,0,.22,0,.33,0,.1,0,.09.06.09.12,0,.06,0,.11-.09.11-.2,0-.2.01-.2.2,0,.15,0,.31,0,.46,0,.07-.03.09-.09.09-.19,0-.19,0-.19-.18,0-.15,0-.31,0-.46,0-.11,0-.11-.11-.12-.02,0-.04,0-.06,0-.11,0-.11,0-.11-.12,0-.11,0-.11.1-.11.11,0,.22,0,.33,0Z"/>
    </g>
  </g>
</svg>